<?xml version="1.0" encoding="utf-8"?>
<!-- Generator: Adobe Illustrator 21.0.0, SVG Export Plug-In . SVG Version: 6.00 Build 0)  -->
<svg version="1.1" id="Слой_1" xmlns="http://www.w3.org/2000/svg" xmlns:xlink="http://www.w3.org/1999/xlink" x="0px" y="0px"
	 viewBox="0 0 17 18" style="enable-background:new 0 0 17 18;" xml:space="preserve">
<polygon style="fill:#1B8BA5;" points="9,18 11,16 6.9,16 "/>
<polygon style="fill:#1B8BA5;" points="14.2,3.9 14.2,5.3 12.5,7 10.8,5.3 10.8,3.9 12,5.1 12,0 13,0 13,5.1 "/>
<circle style="fill:#1B8BA5;" cx="4" cy="5" r="1"/>
<path style="fill:#1B8BA5;" d="M14,2v1h2v8.3l-3.5-3.5l-4,3l-4-4L1,9.5V3h10V2H0v13h17V2H14z M12.5,9.2l2.8,2.8H9.7l-0.4-0.4
	L12.5,9.2z M1,10.8l3.5-2.6L8.3,12H1V10.8z M16,14H1v-1h15V14z"/>
</svg>
